<?xml version="1.0"?>
<svg width="32" height="32" xmlns="http://www.w3.org/2000/svg">

 <g>
  <title>background</title>
  <rect fill="none" id="canvas_background" height="402" width="582" y="-1" x="-1"/>
 </g>
 <g>
  <title>Layer 1</title>
  <g id="Energy20"/>
  <g id="Energy19"/>
  <g id="Energy18"/>
  <g id="Energy17"/>
  <g id="Energy16"/>
  <g id="Energy15"/>
  <g id="Energy14"/>
  <g id="Energy13"/>
  <g id="Energy12"/>
  <g transform="rotate(-180 16 15.9988)" id="Energy11">
   <g id="svg_1">
    <path id="svg_2" fill="#808080" d="m28,19c0,6.620001 -5.379999,12 -12,12s-12,-5.379999 -12,-12c0,-6.42 10.83,-17.25 11.3,-17.71c0.39,-0.39 1.009999,-0.39 1.400001,0c0.469999,0.46 11.299999,11.29 11.299999,17.71z"/>
   </g>
   <g id="svg_3">
    <path id="svg_4" fill="#FFFFFF" d="m14,26c-3.308599,0 -6,-2.691401 -6,-6c0,-0.5527 0.4478,-1 1,-1s1,0.4473 1,1c0,2.2061 1.7944,4 4,4c0.5522,0 1,0.4473 1,1s-0.4478,1 -1,1z"/>
   </g>
  </g>
  <g id="Energy10"/>
  <g id="Energy09"/>
  <g id="Energy08"/>
  <g id="Energy07"/>
  <g id="Energy06"/>
  <g id="Energy05"/>
  <g id="Energy04"/>
  <g id="Energy03"/>
  <g id="Energy02"/>
  <g id="Energy01"/>
 </g>
</svg>
